<?xml version="1.0" standalone="no"?>
<!DOCTYPE svg PUBLIC "-//W3C//DTD SVG 20010904//EN"
 "http://www.w3.org/TR/2001/REC-SVG-20010904/DTD/svg10.dtd">
<svg version="1.0" xmlns="http://www.w3.org/2000/svg"
 width="512.000000pt" height="512.000000pt" viewBox="0 0 512.000000 512.000000"
 preserveAspectRatio="xMidYMid meet">

<g transform="translate(0.000000,512.000000) scale(0.100000,-0.100000)"
fill="#000000" stroke="none">
<path d="M2673 4550 c0 -41 2 -58 4 -37 2 20 2 54 0 75 -2 20 -4 3 -4 -38z"/>
<path d="M2599 4340 c-26 -11 -69 -84 -69 -120 0 -11 -25 -44 -55 -75 -49 -48
-55 -59 -55 -95 0 -23 6 -48 13 -56 24 -31 44 -49 67 -64 31 -20 60 -48 60
-57 -1 -5 -11 -21 -24 -36 -32 -39 -105 -57 -270 -64 -230 -10 -347 -68 -434
-213 -23 -39 -26 -56 -26 -125 0 -66 5 -88 25 -125 33 -60 75 -100 104 -100
34 0 31 13 -8 40 -73 50 -105 157 -78 257 12 42 111 163 134 163 6 0 18 6 26
13 33 28 113 48 227 57 66 5 157 15 204 21 76 11 88 16 118 46 50 54 39 112
-29 147 -12 6 -36 28 -52 48 -30 37 -30 38 -12 58 10 11 34 25 54 30 23 6 44
22 60 44 20 31 22 42 16 94 -6 55 -5 61 16 76 44 30 127 13 143 -31 4 -8 1
-32 -5 -53 -10 -33 -9 -43 12 -79 15 -27 32 -44 49 -48 77 -17 94 -69 36 -115
-19 -16 -39 -28 -45 -28 -23 0 -59 -67 -66 -122 -18 -146 -140 -207 -467 -233
-48 -4 -81 -12 -89 -21 -6 -8 -17 -14 -24 -14 -6 0 -25 -11 -41 -25 -27 -23
-29 -30 -29 -94 0 -70 0 -70 43 -106 46 -40 51 -52 25 -62 -72 -28 -158 -115
-199 -202 -31 -64 -29 -128 5 -197 21 -43 89 -120 122 -139 99 -55 189 -92
245 -100 27 -4 54 -12 61 -17 6 -5 77 -13 157 -18 80 -5 151 -12 158 -16 6 -4
46 -13 87 -20 110 -17 168 -41 175 -69 9 -36 1 -53 -58 -120 -41 -47 -54 -44
-98 22 -15 22 -46 53 -69 69 -40 28 -47 29 -143 28 -115 -1 -154 -16 -229 -86
-41 -38 -42 -39 -42 -109 0 -69 0 -70 44 -112 48 -45 57 -51 139 -92 62 -31
72 -48 49 -84 -65 -106 -107 -230 -107 -316 0 -110 76 -301 111 -280 4 3 6 63
6 134 -1 81 3 134 10 143 7 7 17 34 23 60 7 26 18 53 26 59 8 6 14 19 14 29 0
9 9 29 20 43 11 14 20 28 20 32 0 4 14 29 32 56 34 53 36 54 164 63 151 10
297 104 373 241 29 51 34 72 39 145 6 110 -7 156 -59 207 -43 43 -150 100
-202 109 -18 3 -63 11 -102 20 -38 8 -142 18 -230 24 -245 14 -321 31 -382 88
-17 16 -27 37 -31 67 -4 38 -1 47 24 70 28 26 33 27 120 23 64 -3 99 -9 117
-21 15 -9 33 -17 40 -17 13 0 60 -18 144 -56 17 -8 41 -14 53 -14 11 0 35 -8
53 -17 26 -14 58 -18 163 -18 84 0 136 4 145 12 8 6 32 16 54 22 22 6 61 27
87 46 50 36 128 128 128 149 0 7 7 28 16 45 13 25 15 54 12 126 -2 51 -9 99
-15 106 -5 8 -13 26 -17 41 -8 33 -56 107 -96 147 -80 79 -199 113 -321 91
-65 -11 -195 -62 -259 -100 -14 -9 -34 -21 -45 -27 -48 -29 -129 -79 -154 -96
-14 -9 -39 -24 -56 -32 -16 -8 -37 -20 -45 -25 -52 -33 -120 -53 -182 -54 -61
0 -70 3 -98 29 -25 24 -30 37 -30 75 0 97 53 120 347 149 54 6 102 16 115 25
12 9 28 16 35 16 22 0 98 58 121 93 13 19 25 52 28 73 6 43 33 114 43 114 11
0 51 32 82 65 23 23 29 39 29 73 0 40 -5 49 -54 99 -44 44 -56 62 -61 98 -10
65 -47 96 -121 101 -33 2 -71 -1 -85 -6z m534 -704 c30 -8 73 -26 94 -39 54
-34 131 -124 139 -161 3 -17 13 -39 21 -48 11 -12 15 -42 15 -110 1 -88 -1
-96 -31 -140 -37 -55 -96 -87 -176 -95 -63 -7 -216 13 -255 33 -14 7 -43 15
-63 19 -54 10 -40 29 29 38 89 12 196 38 226 55 73 42 98 144 49 196 -46 48
-94 66 -183 66 -64 0 -95 -5 -147 -26 -106 -42 -217 -123 -192 -139 6 -3 45
16 85 43 160 107 317 123 406 40 32 -30 24 -101 -16 -134 -82 -66 -231 -81
-417 -44 -96 20 -199 52 -222 69 -5 5 -23 11 -40 15 -33 8 -65 33 -65 50 0 6
28 24 63 41 34 16 64 32 67 36 3 3 31 22 63 40 32 19 71 42 85 51 54 35 143
81 237 123 30 13 110 31 152 34 12 0 46 -5 76 -13z m-708 -385 c28 -11 96 -42
152 -70 57 -28 108 -51 115 -51 7 0 22 -7 32 -15 11 -8 27 -15 35 -15 9 -1 34
-9 56 -20 22 -11 51 -19 63 -20 13 0 36 -7 50 -15 15 -8 85 -21 156 -30 71 -8
131 -17 134 -19 9 -9 -8 -36 -25 -42 -10 -3 -33 -13 -52 -22 -47 -23 -252 -22
-296 2 -16 9 -39 16 -50 16 -11 0 -38 9 -60 20 -22 11 -44 19 -50 20 -12 0
-113 39 -140 53 -11 6 -66 13 -122 15 -99 4 -102 4 -137 -24 -39 -32 -53 -78
-37 -132 10 -34 51 -74 106 -103 54 -29 258 -57 427 -58 54 -1 116 -7 140 -15
24 -8 64 -17 89 -20 26 -4 55 -13 65 -21 11 -8 26 -15 35 -15 9 0 42 -24 75
-54 l59 -53 0 -114 c0 -105 -2 -116 -25 -147 -30 -40 -43 -37 -53 14 -21 94
-87 177 -177 221 -70 33 -170 63 -213 63 -21 0 -47 5 -58 10 -11 6 -86 15
-167 21 -81 6 -152 15 -158 20 -6 5 -33 12 -60 15 -27 4 -58 12 -69 19 -11 6
-33 15 -49 19 -33 8 -121 63 -166 103 -77 69 -100 181 -56 270 23 46 90 123
107 123 4 0 15 7 23 16 50 49 214 68 301 35z m299 -819 c21 -14 42 -36 46 -48
5 -12 14 -25 19 -29 6 -3 11 -19 11 -35 0 -25 -7 -33 -41 -50 -48 -25 -66 -21
-75 16 -24 96 -99 132 -164 78 -36 -31 -34 -55 10 -96 34 -32 122 -60 159 -52
147 34 217 81 292 197 17 26 38 47 47 47 18 0 62 -38 62 -53 0 -6 7 -18 16
-28 10 -11 18 -43 21 -82 7 -77 -12 -125 -65 -165 -153 -117 -501 -78 -659 73
-40 38 -43 46 -43 92 0 59 20 90 83 130 76 48 213 50 281 5z m-99 -108 c21
-32 13 -54 -20 -54 -40 0 -81 51 -58 73 16 17 61 6 78 -19z m55 -299 c14 -17
10 -29 -30 -90 -29 -46 -80 -147 -80 -159 0 -7 -9 -29 -20 -51 -11 -21 -23
-54 -26 -72 -11 -59 -29 -31 -32 51 -2 58 1 84 13 102 8 13 15 31 15 40 0 16
48 122 60 134 3 3 13 17 23 33 20 30 57 36 77 12z"/>
<path d="M3018 4323 c7 -3 16 -2 19 1 4 3 -2 6 -13 5 -11 0 -14 -3 -6 -6z"/>
<path d="M1896 4075 c-3 -9 0 -15 9 -15 9 0 12 6 9 15 -4 8 -7 15 -9 15 -2 0
-5 -7 -9 -15z"/>
<path d="M3378 4063 c7 -3 16 -2 19 1 4 3 -2 6 -13 5 -11 0 -14 -3 -6 -6z"/>
<path d="M1940 3895 c0 -8 2 -15 4 -15 2 0 6 7 10 15 3 8 1 15 -4 15 -6 0 -10
-7 -10 -15z"/>
<path d="M1015 1383 c-70 -5 -249 -35 -268 -45 -30 -15 -18 -52 18 -56 17 -1
40 -5 53 -7 l22 -5 0 -341 c0 -202 -4 -348 -10 -359 -5 -10 -30 -30 -55 -45
-26 -14 -44 -32 -42 -38 3 -9 75 -13 263 -15 245 -2 263 -1 327 20 75 24 130
69 153 124 16 38 19 131 5 166 -13 34 -77 96 -117 113 -19 8 -34 19 -34 26 0
6 15 25 33 43 56 53 77 99 77 172 0 86 -36 143 -122 197 -48 30 -210 57 -303
50z m166 -88 c24 -9 54 -26 68 -38 65 -60 69 -180 8 -245 -36 -39 -75 -53
-159 -57 -45 -3 -84 -7 -87 -11 -3 -3 5 -14 19 -24 25 -19 71 -30 128 -30 40
0 108 -30 142 -63 40 -38 56 -99 41 -155 -13 -51 -38 -82 -89 -114 -45 -28
-164 -30 -210 -3 -57 34 -62 64 -62 404 0 299 1 305 22 328 18 19 32 23 78 23
32 0 77 -7 101 -15z"/>
<path d="M4470 1374 c-30 -8 -118 -13 -267 -13 -122 -1 -228 -4 -237 -7 -22
-8 -20 -18 12 -66 l27 -42 0 -326 0 -327 -29 -52 c-17 -33 -25 -56 -19 -62 13
-13 302 -7 305 6 2 9 -24 29 -78 61 -17 10 -19 27 -22 153 -3 100 0 146 8 157
9 10 33 14 80 14 100 0 130 -8 149 -42 18 -31 39 -42 65 -32 13 5 16 22 16 93
0 47 -4 92 -9 100 -9 15 -46 8 -71 -14 -23 -20 -89 -35 -151 -35 -85 0 -89 8
-89 173 0 180 -3 177 154 177 63 0 126 -4 140 -10 15 -5 37 -30 53 -60 30 -53
46 -61 63 -31 11 21 14 159 4 185 -7 19 -40 19 -104 0z"/>
<path d="M1877 1353 c-13 -12 -7 -22 21 -37 46 -24 57 -55 37 -112 -20 -62
-92 -246 -117 -300 -10 -22 -18 -46 -18 -53 0 -7 -6 -25 -14 -39 -8 -15 -26
-61 -42 -102 -45 -121 -67 -153 -124 -180 -33 -16 -50 -30 -50 -42 0 -17 11
-18 135 -18 l135 0 0 31 c0 17 -5 40 -11 51 -15 27 14 152 48 214 l25 44 143
0 c170 0 170 0 214 -113 39 -100 40 -139 4 -166 -48 -36 -54 -42 -48 -52 8
-12 312 -12 320 1 3 5 -13 29 -35 52 -46 48 -66 88 -135 268 -26 69 -53 137
-61 152 -8 14 -14 32 -14 39 0 7 -8 31 -19 53 -10 23 -40 97 -66 166 -27 69
-53 131 -58 138 -10 13 -257 18 -270 5z m203 -195 c6 -18 17 -46 24 -63 41
-93 68 -176 63 -189 -5 -13 -26 -16 -117 -16 -124 0 -136 7 -108 64 17 36 51
124 68 178 10 33 31 57 51 58 4 0 12 -15 19 -32z"/>
<path d="M2677 1353 c-13 -13 -6 -21 37 -47 25 -14 48 -35 51 -47 8 -23 -1
-189 -16 -319 -6 -47 -14 -144 -19 -216 -4 -72 -13 -141 -19 -153 -7 -11 -31
-31 -54 -42 -44 -23 -59 -38 -51 -51 3 -4 66 -8 140 -8 122 0 134 2 134 18 0
10 -6 27 -14 38 -34 48 -38 100 -26 323 12 228 19 265 45 255 9 -4 50 -77 91
-163 194 -401 195 -402 244 -378 25 12 64 84 185 342 107 228 104 224 124 188
15 -30 32 -218 34 -382 l2 -155 -40 -27 c-69 -47 -58 -54 109 -57 82 -1 153 1
158 6 4 4 -8 31 -27 59 -32 48 -36 63 -56 210 -14 104 -21 220 -22 338 -2 175
-1 181 22 212 39 52 26 63 -78 63 -49 0 -97 -3 -106 -6 -9 -4 -32 -41 -52 -83
-169 -367 -238 -501 -253 -499 -16 4 -66 101 -188 368 -11 25 -35 77 -52 115
-50 108 -45 105 -180 105 -64 0 -120 -3 -123 -7z"/>
</g>
</svg>
